ffmpeg started on 2026-04-01 at 19:07:27
Report written to "D:\Convert\FFMetrics\reports\psnr_report-6.txt"
Log level: 32
Command line:
ffmpeg -hide_banner -nostdin -r 24/1 -i "F:\\\xc0\xed\xe8\xec\xe5\\LightFamily\\\xce\xf1\xe2\xee\xe1\xee\xe4\xe8\xf2\xe5 \xfd\xf2\xf3 \xe2\xe5\xe4\xfc\xec\xf3\\LightFamilyDUB_\xce\xf1\xe2\xee\xe1\xee\xe4\xe8\xf2\xe5_\xfd\xf2\xf3_\xe2\xe5\xe4\xfc\xec\xf3_03_\xf1\xe5\xf0\xe8\xff_HEVC.mkv" -r 24/1 -i "F:\\\xc0\xed\xe8\xec\xe5\\LightFamily\\\xce\xf1\xe2\xee\xe1\xee\xe4\xe8\xf2\xe5 \xfd\xf2\xf3 \xe2\xe5\xe4\xfc\xec\xf3\\LightFamilyDUB_\xce\xf1\xe2\xee\xe1\xee\xe4\xe8\xf2\xe5_\xfd\xf2\xf3_\xe2\xe5\xe4\xfc\xec\xf3_03_\xf1\xe5\xf0\xe8\xff.mp4" -lavfi "[0:v]settb=AVTB,setpts=PTS-STARTPTS,format=pix_fmts=yuv420p10le,fps=24/1,scale=1920:1080:flags=lanczos:param0=3:out_range=limited:out_color_matrix=bt709:out_chroma_loc=left,setsar=1/1,setdar=(1920/1080)*(1/1),colorspace=format=yuv420p10:range=tv:primaries=bt709:trc=bt709:space=bt709:fast=0[main];[1:v]settb=AVTB,setpts=PTS-STARTPTS,format=pix_fmts=yuv420p,fps=24/1,scale=1920:1080:flags=lanczos:param0=3:out_range=limited:out_color_matrix=bt709:out_chroma_loc=left,setsar=1/1,setdar=(1920/1080)*(1/1),colorspace=format=yuv420p:range=tv:primaries=bt709:trc=bt709:space=bt709:fast=0[ref];[main][ref]psnr=eof_action=endall:stats_file='D\\:/Convert/FFMetrics/logs/psnr_logfile-6.txt'" -f null -
Input #0, matroska,webm, from 'F:\Аниме\LightFamily\Освободите эту ведьму\LightFamilyDUB_Освободите_эту_ведьму_03_серия_HEVC.mkv':
  Metadata:
    COMPATIBLE_BRANDS: mp42mp41
    MAJOR_BRAND     : mp42
    MINOR_VERSION   : 0
    ENCODER         : Lavf61.7.100
  Duration: 00:27:50.40, start: -0.021000, bitrate: 1056 kb/s
  Stream #0:0(eng): Video: hevc (Main 10), yuv420p10le(tv, bt709, progressive), 1920x1080 [SAR 1:1 DAR 16:9], 24 fps, 24 tbr, 1k tbn (default)
      Metadata:
        HANDLER_NAME    : Mainconcept Video Media Handler
        VENDOR_ID       : [0][0][0][0]
        ENCODER         : Lavc61.19.100 libx265
        BPS             : 856581
        DURATION        : 00:27:50.374666666
        NUMBER_OF_FRAMES: 40089
        NUMBER_OF_BYTES : 178851485
        _STATISTICS_WRITING_APP: mkvpropedit v94.0 ('Initiate') 64-bit
        _STATISTICS_WRITING_DATE_UTC: 2026-04-01 15:53:50
        _STATISTICS_TAGS: BPS DURATION NUMBER_OF_FRAMES NUMBER_OF_BYTES
  Stream #0:1(eng): Audio: aac (LC), 48000 Hz, stereo, fltp (default)
      Metadata:
        HANDLER_NAME    : #Mainconcept MP4 Sound Media Handler
        VENDOR_ID       : [0][0][0][0]
        ENCODER         : Lavc61.19.100 aac
        BPS             : 196255
        DURATION        : 00:27:50.378000000
        NUMBER_OF_FRAMES: 78300
        NUMBER_OF_BYTES : 40977572
        _STATISTICS_WRITING_APP: mkvpropedit v94.0 ('Initiate') 64-bit
        _STATISTICS_WRITING_DATE_UTC: 2026-04-01 15:53:50
        _STATISTICS_TAGS: BPS DURATION NUMBER_OF_FRAMES NUMBER_OF_BYTES
Input #1, mov,mp4,m4a,3gp,3g2,mj2, from 'F:\Аниме\LightFamily\Освободите эту ведьму\LightFamilyDUB_Освободите_эту_ведьму_03_серия.mp4':
  Metadata:
    major_brand     : mp42
    minor_version   : 0
    compatible_brands: mp42mp41
    creation_time   : 2026-03-30T22:33:41.000000Z
  Duration: 00:27:50.38, start: 0.000000, bitrate: 8389 kb/s
  Stream #1:0[0x1](eng): Video: h264 (Main) (avc1 / 0x31637661), yuv420p(tv, bt709, progressive), 1920x1080, 8003 kb/s, 24 fps, 24 tbr, 24k tbn (default)
      Metadata:
        creation_time   : 2026-03-30T22:33:41.000000Z
        handler_name    : Mainconcept Video Media Handler
        vendor_id       : [0][0][0][0]
        encoder         : AVC Coding
  Stream #1:1[0x2](eng): Audio: aac (LC) (mp4a / 0x6134706D), 48000 Hz, stereo, fltp, 381 kb/s (default)
      Metadata:
        creation_time   : 2026-03-30T22:33:41.000000Z
        handler_name    : #Mainconcept MP4 Sound Media Handler
        vendor_id       : [0][0][0][0]
Stream mapping:
  Stream #0:0 (hevc) -> settb:default
  Stream #1:0 (h264) -> settb:default
  psnr:default -> Stream #0:0 (wrapped_avframe)
  Stream #0:1 -> #0:1 (aac (native) -> pcm_s16le (native))
Output #0, null, to 'pipe:':
  Metadata:
    COMPATIBLE_BRANDS: mp42mp41
    MAJOR_BRAND     : mp42
    MINOR_VERSION   : 0
    encoder         : Lavf61.7.100
  Stream #0:0: Video: wrapped_avframe, yuv420p10le(tv, bt709, progressive), 1920x1080 [SAR 1:1 DAR 16:9], q=2-31, 200 kb/s, 24 fps, 24 tbn
      Metadata:
        encoder         : Lavc61.19.100 wrapped_avframe
  Stream #0:1(eng): Audio: pcm_s16le, 48000 Hz, stereo, s16, 1536 kb/s (default)
      Metadata:
        HANDLER_NAME    : #Mainconcept MP4 Sound Media Handler
        VENDOR_ID       : [0][0][0][0]
        _STATISTICS_TAGS: BPS DURATION NUMBER_OF_FRAMES NUMBER_OF_BYTES
        BPS             : 196255
        DURATION        : 00:27:50.378000000
        NUMBER_OF_FRAMES: 78300
        NUMBER_OF_BYTES : 40977572
        _STATISTICS_WRITING_APP: mkvpropedit v94.0 ('Initiate') 64-bit
        _STATISTICS_WRITING_DATE_UTC: 2026-04-01 15:53:50
        encoder         : Lavc61.19.100 pcm_s16le
frame=   70 fps=0.0 q=-0.0 size=N/A time=00:00:02.91 bitrate=N/A speed=5.66x    frame=  190 fps=185 q=-0.0 size=N/A time=00:00:07.91 bitrate=N/A speed=7.71x    frame=  378 fps=246 q=-0.0 size=N/A time=00:00:15.75 bitrate=N/A speed=10.2x    frame=  575 fps=278 q=-0.0 size=N/A time=00:00:23.95 bitrate=N/A speed=11.6x    frame=  760 fps=295 q=-0.0 size=N/A time=00:00:31.66 bitrate=N/A speed=12.3x    frame=  954 fps=309 q=-0.0 size=N/A time=00:00:39.75 bitrate=N/A speed=12.9x    frame= 1144 fps=318 q=-0.0 size=N/A time=00:00:47.66 bitrate=N/A speed=13.2x    frame= 1338 fps=324 q=-0.0 size=N/A time=00:00:55.75 bitrate=N/A speed=13.5x    frame= 1524 fps=329 q=-0.0 size=N/A time=00:01:03.50 bitrate=N/A speed=13.7x    frame= 1711 fps=332 q=-0.0 size=N/A time=00:01:11.29 bitrate=N/A speed=13.8x    frame= 1892 fps=333 q=-0.0 size=N/A time=00:01:18.83 bitrate=N/A speed=13.9x    frame= 2072 fps=335 q=-0.0 size=N/A time=00:01:26.33 bitrate=N/A speed=  14x    frame= 2263 fps=338 q=-0.0 size=N/A time=00:01:34.29 bitrate=N/A speed=14.1x    frame= 2454 fps=340 q=-0.0 size=N/A time=00:01:42.25 bitrate=N/A speed=14.2x    frame= 2647 fps=343 q=-0.0 size=N/A time=00:01:50.29 bitrate=N/A speed=14.3x    frame= 2841 fps=345 q=-0.0 size=N/A time=00:01:58.37 bitrate=N/A speed=14.4x    frame= 3041 fps=347 q=-0.0 size=N/A time=00:02:06.70 bitrate=N/A speed=14.5x    frame= 3215 fps=347 q=-0.0 size=N/A time=00:02:13.95 bitrate=N/A speed=14.4x    frame= 3362 fps=343 q=-0.0 size=N/A time=00:02:20.08 bitrate=N/A speed=14.3x    frame= 3511 fps=341 q=-0.0 size=N/A time=00:02:26.29 bitrate=N/A speed=14.2x    frame= 3631 fps=336 q=-0.0 size=N/A time=00:02:31.29 bitrate=N/A speed=  14x    frame= 3719 fps=328 q=-0.0 size=N/A time=00:02:34.95 bitrate=N/A speed=13.7x    frame= 3828 fps=323 q=-0.0 size=N/A time=00:02:39.50 bitrate=N/A speed=13.5x    frame= 3960 fps=320 q=-0.0 size=N/A time=00:02:45.00 bitrate=N/A speed=13.3x    frame= 4120 fps=320 q=-0.0 size=N/A time=00:02:51.66 bitrate=N/A speed=13.3x    frame= 4248 fps=317 q=-0.0 size=N/A time=00:02:57.00 bitrate=N/A speed=13.2x    frame= 4418 fps=318 q=-0.0 size=N/A time=00:03:04.08 bitrate=N/A speed=13.2x    frame= 4604 fps=319 q=-0.0 size=N/A time=00:03:11.83 bitrate=N/A speed=13.3x    frame= 4774 fps=319 q=-0.0 size=N/A time=00:03:18.91 bitrate=N/A speed=13.3x    frame= 4931 fps=319 q=-0.0 size=N/A time=00:03:25.45 bitrate=N/A speed=13.3x    frame= 5097 fps=319 q=-0.0 size=N/A time=00:03:32.37 bitrate=N/A speed=13.3x    frame= 5281 fps=320 q=-0.0 size=N/A time=00:03:40.04 bitrate=N/A speed=13.3x    frame= 5435 fps=320 q=-0.0 size=N/A time=00:03:46.45 bitrate=N/A speed=13.3x    frame= 5605 fps=320 q=-0.0 size=N/A time=00:03:53.54 bitrate=N/A speed=13.3x    frame= 5752 fps=319 q=-0.0 size=N/A time=00:03:59.66 bitrate=N/A speed=13.3x    frame= 5939 fps=320 q=-0.0 size=N/A time=00:04:07.45 bitrate=N/A speed=13.3x    frame= 5957 fps=312 q=-0.0 size=N/A time=00:04:08.20 bitrate=N/A speed=  13x    frame= 6142 fps=304 q=-0.0 size=N/A time=00:04:15.91 bitrate=N/A speed=12.7x    frame= 6328 fps=306 q=-0.0 size=N/A time=00:04:23.66 bitrate=N/A speed=12.7x    frame= 6519 fps=307 q=-0.0 size=N/A time=00:04:31.62 bitrate=N/A speed=12.8x    frame= 6703 fps=308 q=-0.0 size=N/A time=00:04:39.29 bitrate=N/A speed=12.9x    frame= 6878 fps=309 q=-0.0 size=N/A time=00:04:46.58 bitrate=N/A speed=12.9x    frame= 7074 fps=311 q=-0.0 size=N/A time=00:04:54.75 bitrate=N/A speed=  13x    frame= 7246 fps=311 q=-0.0 size=N/A time=00:05:01.91 bitrate=N/A speed=  13x    frame= 7422 fps=312 q=-0.0 size=N/A time=00:05:09.25 bitrate=N/A speed=  13x    frame= 8083 fps=310 q=-0.0 size=N/A time=00:05:36.79 bitrate=N/A speed=12.9x    frame= 8083 fps=304 q=-0.0 size=N/A time=00:05:36.79 bitrate=N/A speed=12.7x    frame= 8083 fps=298 q=-0.0 size=N/A time=00:05:36.79 bitrate=N/A speed=12.4x    frame= 8083 fps=293 q=-0.0 size=N/A time=00:05:36.79 bitrate=N/A speed=12.2x    frame= 8206 fps=292 q=-0.0 size=N/A time=00:05:41.91 bitrate=N/A speed=12.2x    frame= 8399 fps=293 q=-0.0 size=N/A time=00:05:49.95 bitrate=N/A speed=12.2x    frame= 8589 fps=295 q=-0.0 size=N/A time=00:05:57.87 bitrate=N/A speed=12.3x    frame= 8773 fps=296 q=-0.0 size=N/A time=00:06:05.54 bitrate=N/A speed=12.3x    frame= 8973 fps=297 q=-0.0 size=N/A time=00:06:13.87 bitrate=N/A speed=12.4x    frame= 9151 fps=298 q=-0.0 size=N/A time=00:06:21.29 bitrate=N/A speed=12.4x    frame= 9337 fps=299 q=-0.0 size=N/A time=00:06:29.04 bitrate=N/A speed=12.5x    frame= 9510 fps=300 q=-0.0 size=N/A time=00:06:36.25 bitrate=N/A speed=12.5x    frame= 9693 fps=301 q=-0.0 size=N/A time=00:06:43.87 bitrate=N/A speed=12.5x    frame= 9864 fps=301 q=-0.0 size=N/A time=00:06:51.00 bitrate=N/A speed=12.5x    frame=10042 fps=302 q=-0.0 size=N/A time=00:06:58.41 bitrate=N/A speed=12.6x    frame=10207 fps=302 q=-0.0 size=N/A time=00:07:05.29 bitrate=N/A speed=12.6x    frame=10392 fps=303 q=-0.0 size=N/A time=00:07:13.00 bitrate=N/A speed=12.6x    frame=10557 fps=303 q=-0.0 size=N/A time=00:07:19.87 bitrate=N/A speed=12.6x    frame=10742 fps=304 q=-0.0 size=N/A time=00:07:27.58 bitrate=N/A speed=12.7x    frame=10900 fps=304 q=-0.0 size=N/A time=00:07:34.16 bitrate=N/A speed=12.7x    frame=11091 fps=305 q=-0.0 size=N/A time=00:07:42.12 bitrate=N/A speed=12.7x    frame=11278 fps=306 q=-0.0 size=N/A time=00:07:49.91 bitrate=N/A speed=12.7x    frame=11470 fps=307 q=-0.0 size=N/A time=00:07:57.91 bitrate=N/A speed=12.8x    frame=11645 fps=307 q=-0.0 size=N/A time=00:08:05.20 bitrate=N/A speed=12.8x    frame=11828 fps=308 q=-0.0 size=N/A time=00:08:12.83 bitrate=N/A speed=12.8x    frame=12017 fps=308 q=-0.0 size=N/A time=00:08:20.70 bitrate=N/A speed=12.9x    frame=12207 fps=309 q=-0.0 size=N/A time=00:08:28.62 bitrate=N/A speed=12.9x    frame=12387 fps=310 q=-0.0 size=N/A time=00:08:36.12 bitrate=N/A speed=12.9x    frame=12571 fps=310 q=-0.0 size=N/A time=00:08:43.79 bitrate=N/A speed=12.9x    frame=12763 fps=311 q=-0.0 size=N/A time=00:08:51.79 bitrate=N/A speed=  13x    frame=12956 fps=312 q=-0.0 size=N/A time=00:08:59.83 bitrate=N/A speed=  13x    frame=13140 fps=313 q=-0.0 size=N/A time=00:09:07.50 bitrate=N/A speed=  13x    frame=13258 fps=311 q=-0.0 size=N/A time=00:09:12.41 bitrate=N/A speed=  13x    frame=13339 fps=310 q=-0.0 size=N/A time=00:09:15.79 bitrate=N/A speed=12.9x    frame=13521 fps=310 q=-0.0 size=N/A time=00:09:23.37 bitrate=N/A speed=12.9x    frame=13701 fps=311 q=-0.0 size=N/A time=00:09:30.87 bitrate=N/A speed=12.9x    frame=13857 fps=311 q=-0.0 size=N/A time=00:09:37.37 bitrate=N/A speed=12.9x    frame=14028 fps=311 q=-0.0 size=N/A time=00:09:44.50 bitrate=N/A speed=  13x    frame=14217 fps=311 q=-0.0 size=N/A time=00:09:52.37 bitrate=N/A speed=  13x    frame=14378 fps=311 q=-0.0 size=N/A time=00:09:59.08 bitrate=N/A speed=  13x    frame=14562 fps=312 q=-0.0 size=N/A time=00:10:06.75 bitrate=N/A speed=  13x    frame=14743 fps=312 q=-0.0 size=N/A time=00:10:14.29 bitrate=N/A speed=  13x    frame=14928 fps=313 q=-0.0 size=N/A time=00:10:22.00 bitrate=N/A speed=  13x    frame=15104 fps=313 q=-0.0 size=N/A time=00:10:29.33 bitrate=N/A speed=13.1x    frame=15290 fps=314 q=-0.0 size=N/A time=00:10:37.08 bitrate=N/A speed=13.1x    frame=15460 fps=314 q=-0.0 size=N/A time=00:10:44.16 bitrate=N/A speed=13.1x    frame=15638 fps=314 q=-0.0 size=N/A time=00:10:51.58 bitrate=N/A speed=13.1x    frame=15835 fps=315 q=-0.0 size=N/A time=00:10:59.79 bitrate=N/A speed=13.1x    frame=16016 fps=315 q=-0.0 size=N/A time=00:11:07.33 bitrate=N/A speed=13.1x    frame=16192 fps=316 q=-0.0 size=N/A time=00:11:14.66 bitrate=N/A speed=13.1x    frame=16384 fps=316 q=-0.0 size=N/A time=00:11:22.66 bitrate=N/A speed=13.2x    frame=16534 fps=316 q=-0.0 size=N/A time=00:11:28.91 bitrate=N/A speed=13.2x    frame=16706 fps=316 q=-0.0 size=N/A time=00:11:36.08 bitrate=N/A speed=13.2x    frame=16886 fps=316 q=-0.0 size=N/A time=00:11:43.58 bitrate=N/A speed=13.2x    frame=17065 fps=317 q=-0.0 size=N/A time=00:11:51.04 bitrate=N/A speed=13.2x    frame=17253 fps=317 q=-0.0 size=N/A time=00:11:58.87 bitrate=N/A speed=13.2x    frame=17441 fps=317 q=-0.0 size=N/A time=00:12:06.70 bitrate=N/A speed=13.2x    frame=17629 fps=318 q=-0.0 size=N/A time=00:12:14.54 bitrate=N/A speed=13.2x    frame=17822 fps=318 q=-0.0 size=N/A time=00:12:22.58 bitrate=N/A speed=13.3x    frame=18016 fps=319 q=-0.0 size=N/A time=00:12:30.66 bitrate=N/A speed=13.3x    frame=18203 fps=319 q=-0.0 size=N/A time=00:12:38.45 bitrate=N/A speed=13.3x    frame=18387 fps=320 q=-0.0 size=N/A time=00:12:46.12 bitrate=N/A speed=13.3x    frame=18585 fps=320 q=-0.0 size=N/A time=00:12:54.37 bitrate=N/A speed=13.3x    frame=18779 fps=321 q=-0.0 size=N/A time=00:13:02.45 bitrate=N/A speed=13.4x    frame=18955 fps=321 q=-0.0 size=N/A time=00:13:09.79 bitrate=N/A speed=13.4x    frame=19150 fps=321 q=-0.0 size=N/A time=00:13:17.91 bitrate=N/A speed=13.4x    frame=19333 fps=322 q=-0.0 size=N/A time=00:13:25.54 bitrate=N/A speed=13.4x    frame=19526 fps=322 q=-0.0 size=N/A time=00:13:33.58 bitrate=N/A speed=13.4x    frame=19727 fps=323 q=-0.0 size=N/A time=00:13:41.95 bitrate=N/A speed=13.4x    frame=19916 fps=323 q=-0.0 size=N/A time=00:13:49.83 bitrate=N/A speed=13.5x    frame=20027 fps=322 q=-0.0 size=N/A time=00:13:54.45 bitrate=N/A speed=13.4x    frame=20027 fps=320 q=-0.0 size=N/A time=00:13:54.45 bitrate=N/A speed=13.3x    frame=20060 fps=317 q=-0.0 size=N/A time=00:13:55.83 bitrate=N/A speed=13.2x    frame=20247 fps=318 q=-0.0 size=N/A time=00:14:03.62 bitrate=N/A speed=13.2x    frame=20436 fps=318 q=-0.0 size=N/A time=00:14:11.50 bitrate=N/A speed=13.3x    frame=20621 fps=319 q=-0.0 size=N/A time=00:14:19.20 bitrate=N/A speed=13.3x    frame=20813 fps=319 q=-0.0 size=N/A time=00:14:27.20 bitrate=N/A speed=13.3x    frame=21006 fps=319 q=-0.0 size=N/A time=00:14:35.25 bitrate=N/A speed=13.3x    frame=21172 fps=319 q=-0.0 size=N/A time=00:14:42.16 bitrate=N/A speed=13.3x    frame=21229 fps=318 q=-0.0 size=N/A time=00:14:44.54 bitrate=N/A speed=13.2x    frame=21412 fps=318 q=-0.0 size=N/A time=00:14:52.16 bitrate=N/A speed=13.3x    frame=21599 fps=318 q=-0.0 size=N/A time=00:14:59.95 bitrate=N/A speed=13.3x    frame=21798 fps=319 q=-0.0 size=N/A time=00:15:08.25 bitrate=N/A speed=13.3x    frame=21994 fps=319 q=-0.0 size=N/A time=00:15:16.41 bitrate=N/A speed=13.3x    frame=22195 fps=320 q=-0.0 size=N/A time=00:15:24.79 bitrate=N/A speed=13.3x    frame=22383 fps=320 q=-0.0 size=N/A time=00:15:32.62 bitrate=N/A speed=13.3x    frame=22574 fps=321 q=-0.0 size=N/A time=00:15:40.58 bitrate=N/A speed=13.4x    frame=22777 fps=321 q=-0.0 size=N/A time=00:15:49.04 bitrate=N/A speed=13.4x    frame=22973 fps=321 q=-0.0 size=N/A time=00:15:57.20 bitrate=N/A speed=13.4x    frame=23160 fps=322 q=-0.0 size=N/A time=00:16:05.00 bitrate=N/A speed=13.4x    frame=23340 fps=322 q=-0.0 size=N/A time=00:16:12.50 bitrate=N/A speed=13.4x    frame=23522 fps=322 q=-0.0 size=N/A time=00:16:20.08 bitrate=N/A speed=13.4x    frame=23696 fps=322 q=-0.0 size=N/A time=00:16:27.33 bitrate=N/A speed=13.4x    frame=23903 fps=322 q=-0.0 size=N/A time=00:16:35.95 bitrate=N/A speed=13.4x    frame=24079 fps=323 q=-0.0 size=N/A time=00:16:43.29 bitrate=N/A speed=13.4x    frame=24257 fps=323 q=-0.0 size=N/A time=00:16:50.70 bitrate=N/A speed=13.4x    frame=24430 fps=323 q=-0.0 size=N/A time=00:16:57.91 bitrate=N/A speed=13.4x    frame=24596 fps=323 q=-0.0 size=N/A time=00:17:04.83 bitrate=N/A speed=13.5x    frame=24788 fps=323 q=-0.0 size=N/A time=00:17:12.83 bitrate=N/A speed=13.5x    frame=24955 fps=323 q=-0.0 size=N/A time=00:17:19.79 bitrate=N/A speed=13.5x    frame=25148 fps=323 q=-0.0 size=N/A time=00:17:27.83 bitrate=N/A speed=13.5x    frame=25323 fps=324 q=-0.0 size=N/A time=00:17:35.12 bitrate=N/A speed=13.5x    frame=25503 fps=324 q=-0.0 size=N/A time=00:17:42.62 bitrate=N/A speed=13.5x    frame=25671 fps=324 q=-0.0 size=N/A time=00:17:49.62 bitrate=N/A speed=13.5x    frame=25727 fps=322 q=-0.0 size=N/A time=00:17:51.95 bitrate=N/A speed=13.4x    frame=25905 fps=323 q=-0.0 size=N/A time=00:17:59.37 bitrate=N/A speed=13.4x    frame=26091 fps=323 q=-0.0 size=N/A time=00:18:07.12 bitrate=N/A speed=13.4x    frame=26277 fps=323 q=-0.0 size=N/A time=00:18:14.87 bitrate=N/A speed=13.5x    frame=26466 fps=323 q=-0.0 size=N/A time=00:18:22.75 bitrate=N/A speed=13.5x    frame=26639 fps=323 q=-0.0 size=N/A time=00:18:29.95 bitrate=N/A speed=13.5x    frame=26830 fps=324 q=-0.0 size=N/A time=00:18:37.91 bitrate=N/A speed=13.5x    frame=27011 fps=324 q=-0.0 size=N/A time=00:18:45.45 bitrate=N/A speed=13.5x    frame=27186 fps=324 q=-0.0 size=N/A time=00:18:52.75 bitrate=N/A speed=13.5x    frame=27375 fps=324 q=-0.0 size=N/A time=00:19:00.62 bitrate=N/A speed=13.5x    frame=27561 fps=324 q=-0.0 size=N/A time=00:19:08.37 bitrate=N/A speed=13.5x    frame=27728 fps=324 q=-0.0 size=N/A time=00:19:15.33 bitrate=N/A speed=13.5x    frame=27918 fps=325 q=-0.0 size=N/A time=00:19:23.25 bitrate=N/A speed=13.5x    frame=28103 fps=325 q=-0.0 size=N/A time=00:19:30.95 bitrate=N/A speed=13.5x    frame=28289 fps=325 q=-0.0 size=N/A time=00:19:38.70 bitrate=N/A speed=13.5x    frame=28723 fps=325 q=-0.0 size=N/A time=00:19:56.79 bitrate=N/A speed=13.6x    frame=28907 fps=326 q=-0.0 size=N/A time=00:20:04.45 bitrate=N/A speed=13.6x    frame=29104 fps=326 q=-0.0 size=N/A time=00:20:12.66 bitrate=N/A speed=13.6x    frame=29270 fps=326 q=-0.0 size=N/A time=00:20:19.58 bitrate=N/A speed=13.6x    frame=29451 fps=326 q=-0.0 size=N/A time=00:20:27.12 bitrate=N/A speed=13.6x    frame=29640 fps=326 q=-0.0 size=N/A time=00:20:35.00 bitrate=N/A speed=13.6x    frame=29832 fps=326 q=-0.0 size=N/A time=00:20:43.00 bitrate=N/A speed=13.6x    frame=30020 fps=327 q=-0.0 size=N/A time=00:20:50.83 bitrate=N/A speed=13.6x    frame=30214 fps=327 q=-0.0 size=N/A time=00:20:58.91 bitrate=N/A speed=13.6x    frame=30393 fps=327 q=-0.0 size=N/A time=00:21:06.37 bitrate=N/A speed=13.6x    frame=30579 fps=327 q=-0.0 size=N/A time=00:21:14.12 bitrate=N/A speed=13.6x    frame=30759 fps=327 q=-0.0 size=N/A time=00:21:21.62 bitrate=N/A speed=13.6x    frame=30935 fps=327 q=-0.0 size=N/A time=00:21:28.95 bitrate=N/A speed=13.6x    frame=31113 fps=328 q=-0.0 size=N/A time=00:21:36.37 bitrate=N/A speed=13.6x    frame=31293 fps=328 q=-0.0 size=N/A time=00:21:43.87 bitrate=N/A speed=13.7x    frame=31474 fps=328 q=-0.0 size=N/A time=00:21:51.41 bitrate=N/A speed=13.7x    frame=31657 fps=328 q=-0.0 size=N/A time=00:21:59.04 bitrate=N/A speed=13.7x    frame=31840 fps=328 q=-0.0 size=N/A time=00:22:06.66 bitrate=N/A speed=13.7x    frame=32020 fps=328 q=-0.0 size=N/A time=00:22:14.16 bitrate=N/A speed=13.7x    frame=32202 fps=328 q=-0.0 size=N/A time=00:22:21.75 bitrate=N/A speed=13.7x    frame=32398 fps=329 q=-0.0 size=N/A time=00:22:29.91 bitrate=N/A speed=13.7x    frame=32550 fps=328 q=-0.0 size=N/A time=00:22:36.25 bitrate=N/A speed=13.7x    frame=32749 fps=329 q=-0.0 size=N/A time=00:22:44.54 bitrate=N/A speed=13.7x    frame=32932 fps=329 q=-0.0 size=N/A time=00:22:52.16 bitrate=N/A speed=13.7x    frame=33112 fps=329 q=-0.0 size=N/A time=00:22:59.66 bitrate=N/A speed=13.7x    frame=33302 fps=329 q=-0.0 size=N/A time=00:23:07.58 bitrate=N/A speed=13.7x    frame=33464 fps=329 q=-0.0 size=N/A time=00:23:14.33 bitrate=N/A speed=13.7x    frame=33464 fps=327 q=-0.0 size=N/A time=00:23:14.33 bitrate=N/A speed=13.6x    frame=33550 fps=327 q=-0.0 size=N/A time=00:23:17.91 bitrate=N/A speed=13.6x    frame=33744 fps=327 q=-0.0 size=N/A time=00:23:26.00 bitrate=N/A speed=13.6x    frame=33938 fps=327 q=-0.0 size=N/A time=00:23:34.08 bitrate=N/A speed=13.6x    frame=34125 fps=327 q=-0.0 size=N/A time=00:23:41.87 bitrate=N/A speed=13.6x    frame=34322 fps=328 q=-0.0 size=N/A time=00:23:50.08 bitrate=N/A speed=13.6x    frame=34498 fps=328 q=-0.0 size=N/A time=00:23:57.41 bitrate=N/A speed=13.6x    frame=34681 fps=328 q=-0.0 size=N/A time=00:24:05.04 bitrate=N/A speed=13.7x    frame=34874 fps=328 q=-0.0 size=N/A time=00:24:13.08 bitrate=N/A speed=13.7x    frame=35065 fps=328 q=-0.0 size=N/A time=00:24:21.04 bitrate=N/A speed=13.7x    frame=35241 fps=328 q=-0.0 size=N/A time=00:24:28.37 bitrate=N/A speed=13.7x    frame=35431 fps=328 q=-0.0 size=N/A time=00:24:36.29 bitrate=N/A speed=13.7x    frame=35623 fps=329 q=-0.0 size=N/A time=00:24:44.29 bitrate=N/A speed=13.7x    frame=35690 fps=328 q=-0.0 size=N/A time=00:24:47.08 bitrate=N/A speed=13.7x    frame=35813 fps=327 q=-0.0 size=N/A time=00:24:52.20 bitrate=N/A speed=13.6x    frame=36000 fps=327 q=-0.0 size=N/A time=00:25:00.00 bitrate=N/A speed=13.6x    frame=36198 fps=328 q=-0.0 size=N/A time=00:25:08.25 bitrate=N/A speed=13.7x    frame=36387 fps=328 q=-0.0 size=N/A time=00:25:16.12 bitrate=N/A speed=13.7x    frame=36577 fps=328 q=-0.0 size=N/A time=00:25:24.04 bitrate=N/A speed=13.7x    frame=36762 fps=328 q=-0.0 size=N/A time=00:25:31.75 bitrate=N/A speed=13.7x    frame=36958 fps=328 q=-0.0 size=N/A time=00:25:39.91 bitrate=N/A speed=13.7x    frame=36994 fps=327 q=-0.0 size=N/A time=00:25:41.41 bitrate=N/A speed=13.6x    frame=37169 fps=327 q=-0.0 size=N/A time=00:25:48.70 bitrate=N/A speed=13.6x    frame=37352 fps=327 q=-0.0 size=N/A time=00:25:56.33 bitrate=N/A speed=13.6x    frame=37546 fps=328 q=-0.0 size=N/A time=00:26:04.41 bitrate=N/A speed=13.7x    frame=37724 fps=328 q=-0.0 size=N/A time=00:26:11.83 bitrate=N/A speed=13.7x    frame=37914 fps=328 q=-0.0 size=N/A time=00:26:19.75 bitrate=N/A speed=13.7x    frame=38092 fps=328 q=-0.0 size=N/A time=00:26:27.16 bitrate=N/A speed=13.7x    frame=38266 fps=328 q=-0.0 size=N/A time=00:26:34.41 bitrate=N/A speed=13.7x    frame=38449 fps=328 q=-0.0 size=N/A time=00:26:42.04 bitrate=N/A speed=13.7x    frame=38644 fps=328 q=-0.0 size=N/A time=00:26:50.16 bitrate=N/A speed=13.7x    frame=38832 fps=328 q=-0.0 size=N/A time=00:26:58.00 bitrate=N/A speed=13.7x    frame=39015 fps=329 q=-0.0 size=N/A time=00:27:05.62 bitrate=N/A speed=13.7x    frame=39205 fps=329 q=-0.0 size=N/A time=00:27:13.54 bitrate=N/A speed=13.7x    frame=39404 fps=329 q=-0.0 size=N/A time=00:27:21.83 bitrate=N/A speed=13.7x    frame=39582 fps=329 q=-0.0 size=N/A time=00:27:29.25 bitrate=N/A speed=13.7x    frame=39760 fps=329 q=-0.0 size=N/A time=00:27:36.66 bitrate=N/A speed=13.7x    frame=39926 fps=329 q=-0.0 size=N/A time=00:27:43.58 bitrate=N/A speed=13.7x    [Parsed_psnr_16 @ 0000027427fa4f00] PSNR y:47.324617 u:51.271697 v:51.542835 average:48.310410 min:28.139545 max:73.787924
[out#0/null @ 0000027422dcf200] video:17226KiB audio:313200KiB subtitle:0KiB other streams:0KiB global headers:0KiB muxing overhead: unknown
frame=40089 fps=329 q=-0.0 Lsize=N/A time=00:27:50.37 bitrate=N/A speed=13.7x    
